<mxfile host="app.diagrams.net" modified="2022-10-17T10:57:35.091Z" agent="5.0 (Windows NT 10.0; WOW64) AppleWebKit/537.36 (KHTML, like Gecko) Chrome/94.0.4606.71 Safari/537.36 Core/1.94.178.400 QQBrowser/11.2.5170.400" etag="kMZTsbevbIVoiC0PlKPV" version="20.4.1" type="github">
  <diagram id="C5RBs43oDa-KdzZeNtuy" name="Page-1">
    <mxGraphModel dx="1422" dy="771" grid="1" gridSize="10" guides="1" tooltips="1" connect="1" arrows="1" fold="1" page="1" pageScale="1" pageWidth="827" pageHeight="1169" math="0" shadow="0">
      <root>
        <mxCell id="WIyWlLk6GJQsqaUBKTNV-0" />
        <mxCell id="WIyWlLk6GJQsqaUBKTNV-1" parent="WIyWlLk6GJQsqaUBKTNV-0" />
        <mxCell id="Wc5jB5-GYFd-qspmVOjh-73" value="" style="group;fontSize=16;fontFamily=Times New Roman;" vertex="1" connectable="0" parent="WIyWlLk6GJQsqaUBKTNV-1">
          <mxGeometry x="160" y="80" width="496" height="571" as="geometry" />
        </mxCell>
        <mxCell id="WIyWlLk6GJQsqaUBKTNV-3" value="启动上位机" style="rounded=1;whiteSpace=wrap;html=1;fontSize=16;glass=0;strokeWidth=1;shadow=0;fontFamily=Times New Roman;" parent="Wc5jB5-GYFd-qspmVOjh-73" vertex="1">
          <mxGeometry width="120" height="40" as="geometry" />
        </mxCell>
        <mxCell id="Wc5jB5-GYFd-qspmVOjh-36" style="edgeStyle=orthogonalEdgeStyle;rounded=0;orthogonalLoop=1;jettySize=auto;html=1;entryX=0.5;entryY=0;entryDx=0;entryDy=0;fontSize=16;fontFamily=Times New Roman;" edge="1" parent="Wc5jB5-GYFd-qspmVOjh-73">
          <mxGeometry relative="1" as="geometry">
            <mxPoint x="440" y="40" as="sourcePoint" />
            <mxPoint x="440" y="211" as="targetPoint" />
          </mxGeometry>
        </mxCell>
        <mxCell id="Wc5jB5-GYFd-qspmVOjh-0" value="启动下位机" style="rounded=1;whiteSpace=wrap;html=1;fontSize=16;glass=0;strokeWidth=1;shadow=0;fontFamily=Times New Roman;" vertex="1" parent="Wc5jB5-GYFd-qspmVOjh-73">
          <mxGeometry x="376" width="120" height="40" as="geometry" />
        </mxCell>
        <mxCell id="Wc5jB5-GYFd-qspmVOjh-39" style="edgeStyle=orthogonalEdgeStyle;rounded=0;orthogonalLoop=1;jettySize=auto;html=1;fontSize=16;fontFamily=Times New Roman;" edge="1" parent="Wc5jB5-GYFd-qspmVOjh-73" source="WIyWlLk6GJQsqaUBKTNV-3" target="Wc5jB5-GYFd-qspmVOjh-0">
          <mxGeometry relative="1" as="geometry" />
        </mxCell>
        <mxCell id="Wc5jB5-GYFd-qspmVOjh-41" value="Start" style="edgeLabel;html=1;align=center;verticalAlign=middle;resizable=0;points=[];fontSize=16;fontFamily=Times New Roman;" vertex="1" connectable="0" parent="Wc5jB5-GYFd-qspmVOjh-39">
          <mxGeometry x="-0.3467" y="1" relative="1" as="geometry">
            <mxPoint x="34" y="-9" as="offset" />
          </mxGeometry>
        </mxCell>
        <mxCell id="Wc5jB5-GYFd-qspmVOjh-3" value="创建工程" style="rounded=1;whiteSpace=wrap;html=1;fontSize=16;glass=0;strokeWidth=1;shadow=0;fontFamily=Times New Roman;" vertex="1" parent="Wc5jB5-GYFd-qspmVOjh-73">
          <mxGeometry y="68" width="120" height="40" as="geometry" />
        </mxCell>
        <mxCell id="Wc5jB5-GYFd-qspmVOjh-12" value="" style="edgeStyle=orthogonalEdgeStyle;rounded=0;orthogonalLoop=1;jettySize=auto;html=1;fontSize=16;fontFamily=Times New Roman;" edge="1" parent="Wc5jB5-GYFd-qspmVOjh-73" source="WIyWlLk6GJQsqaUBKTNV-3" target="Wc5jB5-GYFd-qspmVOjh-3">
          <mxGeometry relative="1" as="geometry" />
        </mxCell>
        <mxCell id="Wc5jB5-GYFd-qspmVOjh-4" value="创建配置" style="rounded=1;whiteSpace=wrap;html=1;fontSize=16;glass=0;strokeWidth=1;shadow=0;fontFamily=Times New Roman;" vertex="1" parent="Wc5jB5-GYFd-qspmVOjh-73">
          <mxGeometry y="141" width="120" height="40" as="geometry" />
        </mxCell>
        <mxCell id="Wc5jB5-GYFd-qspmVOjh-13" value="" style="edgeStyle=orthogonalEdgeStyle;rounded=0;orthogonalLoop=1;jettySize=auto;html=1;fontSize=16;fontFamily=Times New Roman;" edge="1" parent="Wc5jB5-GYFd-qspmVOjh-73" source="Wc5jB5-GYFd-qspmVOjh-3" target="Wc5jB5-GYFd-qspmVOjh-4">
          <mxGeometry relative="1" as="geometry" />
        </mxCell>
        <mxCell id="Wc5jB5-GYFd-qspmVOjh-14" value="建立连接" style="rounded=1;whiteSpace=wrap;html=1;fontSize=16;glass=0;strokeWidth=1;shadow=0;fontFamily=Times New Roman;" vertex="1" parent="Wc5jB5-GYFd-qspmVOjh-73">
          <mxGeometry y="211" width="120" height="40" as="geometry" />
        </mxCell>
        <mxCell id="Wc5jB5-GYFd-qspmVOjh-29" style="edgeStyle=orthogonalEdgeStyle;rounded=0;orthogonalLoop=1;jettySize=auto;html=1;entryX=0.5;entryY=0;entryDx=0;entryDy=0;fontSize=16;fontFamily=Times New Roman;" edge="1" parent="Wc5jB5-GYFd-qspmVOjh-73" source="Wc5jB5-GYFd-qspmVOjh-4" target="Wc5jB5-GYFd-qspmVOjh-14">
          <mxGeometry relative="1" as="geometry" />
        </mxCell>
        <mxCell id="Wc5jB5-GYFd-qspmVOjh-69" style="edgeStyle=orthogonalEdgeStyle;rounded=0;orthogonalLoop=1;jettySize=auto;html=1;entryX=0;entryY=0.5;entryDx=0;entryDy=0;fontSize=16;fontFamily=Times New Roman;" edge="1" parent="Wc5jB5-GYFd-qspmVOjh-73">
          <mxGeometry relative="1" as="geometry">
            <mxPoint x="120" y="300" as="sourcePoint" />
            <mxPoint x="376" y="300" as="targetPoint" />
          </mxGeometry>
        </mxCell>
        <mxCell id="Wc5jB5-GYFd-qspmVOjh-15" value="开始采集" style="rounded=1;whiteSpace=wrap;html=1;fontSize=16;glass=0;strokeWidth=1;shadow=0;fontFamily=Times New Roman;" vertex="1" parent="Wc5jB5-GYFd-qspmVOjh-73">
          <mxGeometry y="289" width="120" height="40" as="geometry" />
        </mxCell>
        <mxCell id="Wc5jB5-GYFd-qspmVOjh-30" style="edgeStyle=orthogonalEdgeStyle;rounded=0;orthogonalLoop=1;jettySize=auto;html=1;entryX=0.5;entryY=0;entryDx=0;entryDy=0;fontSize=16;fontFamily=Times New Roman;" edge="1" parent="Wc5jB5-GYFd-qspmVOjh-73" source="Wc5jB5-GYFd-qspmVOjh-14" target="Wc5jB5-GYFd-qspmVOjh-15">
          <mxGeometry relative="1" as="geometry" />
        </mxCell>
        <mxCell id="Wc5jB5-GYFd-qspmVOjh-32" style="edgeStyle=orthogonalEdgeStyle;rounded=0;orthogonalLoop=1;jettySize=auto;html=1;fontSize=16;fontFamily=Times New Roman;" edge="1" parent="Wc5jB5-GYFd-qspmVOjh-73" source="Wc5jB5-GYFd-qspmVOjh-16">
          <mxGeometry relative="1" as="geometry">
            <mxPoint x="60" y="441" as="targetPoint" />
          </mxGeometry>
        </mxCell>
        <mxCell id="Wc5jB5-GYFd-qspmVOjh-71" style="edgeStyle=orthogonalEdgeStyle;rounded=0;orthogonalLoop=1;jettySize=auto;html=1;entryX=0;entryY=0.5;entryDx=0;entryDy=0;fontSize=16;fontFamily=Times New Roman;" edge="1" parent="Wc5jB5-GYFd-qspmVOjh-73">
          <mxGeometry relative="1" as="geometry">
            <mxPoint x="120" y="372" as="sourcePoint" />
            <mxPoint x="376" y="372" as="targetPoint" />
          </mxGeometry>
        </mxCell>
        <mxCell id="Wc5jB5-GYFd-qspmVOjh-16" value="结束采集" style="rounded=1;whiteSpace=wrap;html=1;fontSize=16;glass=0;strokeWidth=1;shadow=0;fontFamily=Times New Roman;" vertex="1" parent="Wc5jB5-GYFd-qspmVOjh-73">
          <mxGeometry y="361" width="120" height="40" as="geometry" />
        </mxCell>
        <mxCell id="Wc5jB5-GYFd-qspmVOjh-31" style="edgeStyle=orthogonalEdgeStyle;rounded=0;orthogonalLoop=1;jettySize=auto;html=1;entryX=0.5;entryY=0;entryDx=0;entryDy=0;fontSize=16;fontFamily=Times New Roman;" edge="1" parent="Wc5jB5-GYFd-qspmVOjh-73" source="Wc5jB5-GYFd-qspmVOjh-15" target="Wc5jB5-GYFd-qspmVOjh-16">
          <mxGeometry relative="1" as="geometry" />
        </mxCell>
        <mxCell id="Wc5jB5-GYFd-qspmVOjh-17" value="断开连接" style="rounded=1;whiteSpace=wrap;html=1;fontSize=16;glass=0;strokeWidth=1;shadow=0;fontFamily=Times New Roman;" vertex="1" parent="Wc5jB5-GYFd-qspmVOjh-73">
          <mxGeometry y="446" width="120" height="40" as="geometry" />
        </mxCell>
        <mxCell id="Wc5jB5-GYFd-qspmVOjh-33" value="关闭软件" style="rounded=1;whiteSpace=wrap;html=1;fontSize=16;glass=0;strokeWidth=1;shadow=0;fontFamily=Times New Roman;" vertex="1" parent="Wc5jB5-GYFd-qspmVOjh-73">
          <mxGeometry y="531" width="120" height="40" as="geometry" />
        </mxCell>
        <mxCell id="Wc5jB5-GYFd-qspmVOjh-34" value="" style="edgeStyle=orthogonalEdgeStyle;rounded=0;orthogonalLoop=1;jettySize=auto;html=1;fontSize=16;fontFamily=Times New Roman;" edge="1" parent="Wc5jB5-GYFd-qspmVOjh-73" source="Wc5jB5-GYFd-qspmVOjh-17" target="Wc5jB5-GYFd-qspmVOjh-33">
          <mxGeometry relative="1" as="geometry" />
        </mxCell>
        <mxCell id="Wc5jB5-GYFd-qspmVOjh-42" style="edgeStyle=orthogonalEdgeStyle;rounded=0;orthogonalLoop=1;jettySize=auto;html=1;entryX=1;entryY=0.75;entryDx=0;entryDy=0;fontSize=16;fontFamily=Times New Roman;" edge="1" parent="Wc5jB5-GYFd-qspmVOjh-73" source="Wc5jB5-GYFd-qspmVOjh-35" target="Wc5jB5-GYFd-qspmVOjh-14">
          <mxGeometry relative="1" as="geometry">
            <Array as="points">
              <mxPoint x="240" y="241" />
              <mxPoint x="240" y="241" />
            </Array>
          </mxGeometry>
        </mxCell>
        <mxCell id="Wc5jB5-GYFd-qspmVOjh-45" value="" style="edgeStyle=orthogonalEdgeStyle;rounded=0;orthogonalLoop=1;jettySize=auto;html=1;fontSize=16;fontFamily=Times New Roman;" edge="1" parent="Wc5jB5-GYFd-qspmVOjh-73">
          <mxGeometry relative="1" as="geometry">
            <mxPoint x="440" y="251" as="sourcePoint" />
            <mxPoint x="440" y="289" as="targetPoint" />
          </mxGeometry>
        </mxCell>
        <mxCell id="Wc5jB5-GYFd-qspmVOjh-35" value="采集数据并发送回上位机" style="rounded=1;whiteSpace=wrap;html=1;fontSize=16;glass=0;strokeWidth=1;shadow=0;fontFamily=Times New Roman;" vertex="1" parent="Wc5jB5-GYFd-qspmVOjh-73">
          <mxGeometry x="376" y="211" width="120" height="40" as="geometry" />
        </mxCell>
        <mxCell id="Wc5jB5-GYFd-qspmVOjh-37" style="edgeStyle=orthogonalEdgeStyle;rounded=0;orthogonalLoop=1;jettySize=auto;html=1;fontSize=16;fontFamily=Times New Roman;" edge="1" parent="Wc5jB5-GYFd-qspmVOjh-73" source="Wc5jB5-GYFd-qspmVOjh-14" target="Wc5jB5-GYFd-qspmVOjh-35">
          <mxGeometry relative="1" as="geometry">
            <Array as="points">
              <mxPoint x="180" y="221" />
              <mxPoint x="180" y="221" />
            </Array>
          </mxGeometry>
        </mxCell>
        <mxCell id="Wc5jB5-GYFd-qspmVOjh-38" value="Connect" style="text;html=1;align=center;verticalAlign=middle;resizable=0;points=[];autosize=1;strokeColor=none;fillColor=none;fontSize=16;fontFamily=Times New Roman;" vertex="1" parent="Wc5jB5-GYFd-qspmVOjh-73">
          <mxGeometry x="200" y="191" width="80" height="30" as="geometry" />
        </mxCell>
        <mxCell id="Wc5jB5-GYFd-qspmVOjh-43" value="推送数据至上位机" style="text;html=1;align=center;verticalAlign=middle;resizable=0;points=[];autosize=1;strokeColor=none;fillColor=none;fontSize=16;fontFamily=Times New Roman;" vertex="1" parent="Wc5jB5-GYFd-qspmVOjh-73">
          <mxGeometry x="166" y="241" width="150" height="30" as="geometry" />
        </mxCell>
        <mxCell id="Wc5jB5-GYFd-qspmVOjh-47" style="edgeStyle=orthogonalEdgeStyle;rounded=0;orthogonalLoop=1;jettySize=auto;html=1;fontSize=16;fontFamily=Times New Roman;" edge="1" parent="Wc5jB5-GYFd-qspmVOjh-73">
          <mxGeometry relative="1" as="geometry">
            <mxPoint x="440" y="329" as="sourcePoint" />
            <mxPoint x="440" y="361" as="targetPoint" />
          </mxGeometry>
        </mxCell>
        <mxCell id="Wc5jB5-GYFd-qspmVOjh-70" style="edgeStyle=orthogonalEdgeStyle;rounded=0;orthogonalLoop=1;jettySize=auto;html=1;entryX=1;entryY=0.5;entryDx=0;entryDy=0;fontSize=16;fontFamily=Times New Roman;" edge="1" parent="Wc5jB5-GYFd-qspmVOjh-73">
          <mxGeometry relative="1" as="geometry">
            <mxPoint x="376" y="314" as="sourcePoint" />
            <mxPoint x="120" y="314" as="targetPoint" />
          </mxGeometry>
        </mxCell>
        <mxCell id="Wc5jB5-GYFd-qspmVOjh-44" value="采集数据并保存" style="rounded=1;whiteSpace=wrap;html=1;fontSize=16;glass=0;strokeWidth=1;shadow=0;fontFamily=Times New Roman;" vertex="1" parent="Wc5jB5-GYFd-qspmVOjh-73">
          <mxGeometry x="376" y="289" width="120" height="40" as="geometry" />
        </mxCell>
        <mxCell id="Wc5jB5-GYFd-qspmVOjh-49" value="" style="edgeStyle=orthogonalEdgeStyle;rounded=0;orthogonalLoop=1;jettySize=auto;html=1;fontSize=16;fontFamily=Times New Roman;" edge="1" parent="Wc5jB5-GYFd-qspmVOjh-73">
          <mxGeometry relative="1" as="geometry">
            <mxPoint x="440" y="401" as="sourcePoint" />
            <mxPoint x="440" y="446" as="targetPoint" />
          </mxGeometry>
        </mxCell>
        <mxCell id="Wc5jB5-GYFd-qspmVOjh-72" style="edgeStyle=orthogonalEdgeStyle;rounded=0;orthogonalLoop=1;jettySize=auto;html=1;entryX=1;entryY=0.5;entryDx=0;entryDy=0;fontSize=16;fontFamily=Times New Roman;" edge="1" parent="Wc5jB5-GYFd-qspmVOjh-73">
          <mxGeometry relative="1" as="geometry">
            <mxPoint x="376" y="385" as="sourcePoint" />
            <mxPoint x="120" y="385" as="targetPoint" />
          </mxGeometry>
        </mxCell>
        <mxCell id="Wc5jB5-GYFd-qspmVOjh-46" value="停止保存，但继续推送至上位机" style="rounded=1;whiteSpace=wrap;html=1;fontSize=16;glass=0;strokeWidth=1;shadow=0;fontFamily=Times New Roman;" vertex="1" parent="Wc5jB5-GYFd-qspmVOjh-73">
          <mxGeometry x="376" y="361" width="120" height="40" as="geometry" />
        </mxCell>
        <mxCell id="Wc5jB5-GYFd-qspmVOjh-51" value="" style="edgeStyle=orthogonalEdgeStyle;rounded=0;orthogonalLoop=1;jettySize=auto;html=1;fontSize=16;fontFamily=Times New Roman;" edge="1" parent="Wc5jB5-GYFd-qspmVOjh-73">
          <mxGeometry relative="1" as="geometry">
            <mxPoint x="440" y="486" as="sourcePoint" />
            <mxPoint x="440" y="531" as="targetPoint" />
          </mxGeometry>
        </mxCell>
        <mxCell id="Wc5jB5-GYFd-qspmVOjh-48" value="停止采集数据" style="rounded=1;whiteSpace=wrap;html=1;fontSize=16;glass=0;strokeWidth=1;shadow=0;fontFamily=Times New Roman;" vertex="1" parent="Wc5jB5-GYFd-qspmVOjh-73">
          <mxGeometry x="376" y="446" width="120" height="40" as="geometry" />
        </mxCell>
        <mxCell id="Wc5jB5-GYFd-qspmVOjh-67" style="edgeStyle=orthogonalEdgeStyle;rounded=0;orthogonalLoop=1;jettySize=auto;html=1;entryX=0;entryY=0.5;entryDx=0;entryDy=0;fontSize=16;fontFamily=Times New Roman;" edge="1" parent="Wc5jB5-GYFd-qspmVOjh-73" source="Wc5jB5-GYFd-qspmVOjh-17" target="Wc5jB5-GYFd-qspmVOjh-48">
          <mxGeometry relative="1" as="geometry" />
        </mxCell>
        <mxCell id="Wc5jB5-GYFd-qspmVOjh-50" value="关闭下位机" style="rounded=1;whiteSpace=wrap;html=1;fontSize=16;glass=0;strokeWidth=1;shadow=0;fontFamily=Times New Roman;" vertex="1" parent="Wc5jB5-GYFd-qspmVOjh-73">
          <mxGeometry x="376" y="531" width="120" height="40" as="geometry" />
        </mxCell>
        <mxCell id="Wc5jB5-GYFd-qspmVOjh-52" style="edgeStyle=orthogonalEdgeStyle;rounded=0;orthogonalLoop=1;jettySize=auto;html=1;entryX=0;entryY=0.5;entryDx=0;entryDy=0;fontSize=16;fontFamily=Times New Roman;" edge="1" parent="Wc5jB5-GYFd-qspmVOjh-73" source="Wc5jB5-GYFd-qspmVOjh-33" target="Wc5jB5-GYFd-qspmVOjh-50">
          <mxGeometry relative="1" as="geometry" />
        </mxCell>
        <mxCell id="Wc5jB5-GYFd-qspmVOjh-54" value="StartRecord" style="text;html=1;align=center;verticalAlign=middle;resizable=0;points=[];autosize=1;strokeColor=none;fillColor=none;fontSize=16;fontFamily=Times New Roman;" vertex="1" parent="Wc5jB5-GYFd-qspmVOjh-73">
          <mxGeometry x="193" y="271" width="100" height="30" as="geometry" />
        </mxCell>
        <mxCell id="Wc5jB5-GYFd-qspmVOjh-62" value="推送数据至上位机" style="text;html=1;align=center;verticalAlign=middle;resizable=0;points=[];autosize=1;strokeColor=none;fillColor=none;fontSize=16;fontFamily=Times New Roman;" vertex="1" parent="Wc5jB5-GYFd-qspmVOjh-73">
          <mxGeometry x="167" y="311" width="150" height="30" as="geometry" />
        </mxCell>
        <mxCell id="Wc5jB5-GYFd-qspmVOjh-64" value="StopRecord" style="text;html=1;align=center;verticalAlign=middle;resizable=0;points=[];autosize=1;strokeColor=none;fillColor=none;fontSize=16;fontFamily=Times New Roman;" vertex="1" parent="Wc5jB5-GYFd-qspmVOjh-73">
          <mxGeometry x="197" y="341" width="100" height="30" as="geometry" />
        </mxCell>
        <mxCell id="Wc5jB5-GYFd-qspmVOjh-66" value="推送数据至上位机" style="text;html=1;align=center;verticalAlign=middle;resizable=0;points=[];autosize=1;strokeColor=none;fillColor=none;fontSize=16;fontFamily=Times New Roman;" vertex="1" parent="Wc5jB5-GYFd-qspmVOjh-73">
          <mxGeometry x="165" y="381" width="150" height="30" as="geometry" />
        </mxCell>
        <mxCell id="Wc5jB5-GYFd-qspmVOjh-68" value="Disconnect" style="text;html=1;align=center;verticalAlign=middle;resizable=0;points=[];autosize=1;strokeColor=none;fillColor=none;fontSize=16;fontFamily=Times New Roman;" vertex="1" parent="Wc5jB5-GYFd-qspmVOjh-73">
          <mxGeometry x="198" y="436" width="100" height="30" as="geometry" />
        </mxCell>
      </root>
    </mxGraphModel>
  </diagram>
</mxfile>
